<svg width="405" height="154" viewBox="0 0 405 154" fill="none" xmlns="http://www.w3.org/2000/svg">
<path d="M255.36 138.44H258.28C261.08 138.44 262.84 140.16 262.84 143.72C262.84 147.28 261.08 149 258.28 149H253.6V153.24H251.48V142.96C251.48 139.92 252.82 138.44 255.36 138.44ZM253.6 143.06V146.94H258.06C259.9 146.94 260.7 146 260.7 143.72C260.7 141.44 259.9 140.48 258.06 140.48H255.98C254.26 140.48 253.6 141.24 253.6 143.06ZM265.387 133.86H267.507V138.44H271.227C274.787 138.44 276.547 140.16 276.547 143.06V149H274.407V143.06C274.407 141.44 273.427 140.48 271.227 140.48H267.507V149H265.387V133.86ZM287.878 138.44H290.138L283.778 153.24H281.498L283.478 148.62C282.278 148.62 281.858 148.24 281.498 147.32L277.958 138.44H280.198L283.378 146.3C283.518 146.68 283.618 146.74 284.018 146.74H284.298L287.878 138.44ZM294.655 138.44H300.515V140.48H294.675C293.695 140.48 293.295 140.88 293.295 141.68C293.295 142.42 293.615 142.82 294.795 142.82H297.275C300.195 142.82 300.935 144.16 300.935 145.8C300.935 147.68 299.955 149 297.475 149H291.335V146.94H297.475C298.455 146.94 298.855 146.6 298.855 145.78C298.855 144.94 298.415 144.6 297.355 144.6H294.855C291.935 144.6 291.215 143.14 291.215 141.52C291.215 139.62 292.195 138.44 294.655 138.44ZM303.434 138.44H305.554V149H303.434V138.44ZM303.434 134.46H305.574V136.92H303.434V134.46ZM312.67 138.44H314.89C317.69 138.44 319.47 140.16 319.47 143.72C319.47 147.28 317.69 149 314.89 149H312.67C309.85 149 308.09 147.28 308.09 143.72C308.09 140.16 309.85 138.44 312.67 138.44ZM314.69 140.48H312.87C311.03 140.48 310.23 141.44 310.23 143.72C310.23 146 311.03 146.94 312.87 146.94H314.69C316.51 146.94 317.33 146 317.33 143.72C317.33 141.44 316.51 140.48 314.69 140.48ZM320.948 138.44H322.388V135.94H324.528V138.44H327.448V140.48H324.528V145.48C324.528 146.66 324.948 147.06 325.948 147.06H327.408V149H325.508C323.328 149 322.388 148.12 322.388 145.36V140.48H320.948V138.44ZM329.508 133.86H331.628V138.44H335.348C338.908 138.44 340.668 140.16 340.668 143.06V149H338.528V143.06C338.528 141.44 337.548 140.48 335.348 140.48H331.628V149H329.508V133.86ZM347.109 138.44H350.529C353.029 138.44 354.089 139.64 354.089 141.68C354.089 143.62 353.109 144.72 350.509 144.72H345.489V145.48C345.489 146.32 345.949 146.94 347.109 146.94H353.569V149H347.109C344.469 149 343.429 147.52 343.429 145.52V141.92C343.429 139.92 344.469 138.44 347.109 138.44ZM345.489 141.94V143.06H350.449C351.589 143.06 352.009 142.58 352.009 141.8C352.009 141 351.549 140.48 350.509 140.48H347.109C345.949 140.48 345.489 141.12 345.489 141.94ZM359.536 138.44H363.876V140.48H360.156C359.216 140.48 358.796 140.92 358.796 141.84V149H356.676V141.52C356.676 139.4 357.456 138.44 359.536 138.44ZM366.374 138.44H372.714C375.354 138.44 376.394 139.92 376.394 141.92V146.88C376.394 148.4 375.994 149 374.214 149H369.274C366.774 149 365.734 147.78 365.734 145.78C365.734 143.86 366.694 142.74 369.294 142.74H374.314V141.94C374.314 141.12 373.854 140.48 372.694 140.48H366.374V138.44ZM373.734 146.94C374.154 146.94 374.314 146.78 374.314 146.4V144.42H369.334C368.214 144.42 367.814 144.88 367.814 145.66C367.814 146.44 368.234 146.94 369.294 146.94H373.734ZM383.231 138.44H386.151C388.951 138.44 390.711 140.16 390.711 143.72C390.711 147.28 388.951 149 386.151 149H381.471V153.24H379.351V142.96C379.351 139.92 380.691 138.44 383.231 138.44ZM381.471 143.06V146.94H385.931C387.771 146.94 388.571 146 388.571 143.72C388.571 141.44 387.771 140.48 385.931 140.48H383.851C382.131 140.48 381.471 141.24 381.471 143.06ZM401.648 138.44H403.908L397.548 153.24H395.268L397.248 148.62C396.048 148.62 395.628 148.24 395.268 147.32L391.728 138.44H393.968L397.148 146.3C397.288 146.68 397.388 146.74 397.788 146.74H398.068L401.648 138.44Z" fill="#9D8A6C"/>
<path fill-rule="evenodd" clip-rule="evenodd" d="M310 127H326.304V70.8962C329.081 71.5558 330.126 72.4397 330.842 75.165C331.844 77.096 331.933 78.5021 331.611 81.3395C330.641 84.2358 330.649 85.686 331.38 88.0475C332.405 90.5841 333.277 91.7248 335.149 93.4597C337.023 95.5729 338.173 96.5214 340.301 98.0334C342.843 99.8093 344.033 100.671 345.916 102.073C349.497 104.585 351.104 106.043 353.452 108.705C357.343 112.841 359.642 115.344 363.758 119.835C365.994 122.108 367.603 123.646 369.218 124.637C370.833 125.628 370.659 125.537 372.679 126.085C374.7 126.633 386.197 124.946 385.061 124.637C390.804 122.819 392.724 121.841 394.828 120.139C396.647 118.554 397.453 117.56 398.443 115.566C399.518 113.707 399.918 112.729 400.135 111.145C399.777 95.584 398.845 86.8974 396.674 71.4298C397.38 68.727 397.723 67.25 399.751 63.5784C401.699 60.6636 402.767 59.0198 403.211 55.4982L403.204 55.2622V55.262C403.032 49.9831 402.933 46.9512 401.366 41.7009C400.55 36.9432 400.162 34.2625 399.751 29.4283C401.211 27.0432 402.093 25.679 403.827 23.1776C405.532 20.6156 405.422 19.3595 403.211 17.4605C399.289 14.7218 397.578 12.6387 395.444 7.93197C393.961 4.90907 392.772 3.44747 390.06 1.22392C388.951 0.540121 388.328 0.229946 387.215 0.00427105C385.645 -0.0284654 384.92 0.122459 383.831 0.614094C383.831 0.614094 383.384 0.996103 383.523 1.22392C385.205 3.97989 388.138 9.30407 388.907 12.1245C389.676 14.945 391.521 19.4424 391.521 19.4424C392.193 23.8986 391.89 24.0161 391.813 24.8546C391.736 25.6931 391.89 27.4463 386.737 30.2667C386.327 29.9204 369.716 50.771 369.295 50.6958C363.868 53.8617 361.339 56.2592 357.452 61.2915L342.609 71.4298C341.162 70.3988 340.557 69.7216 340.071 68.2283C340.466 67.3191 340.993 67.0156 342.609 66.9324C344.654 65.0781 344.626 64.6451 345.147 63.5784C345.269 61.8451 345.012 60.8377 344.224 59.0047C342.763 56.422 341.792 55.0444 339.532 52.8302C336.832 50.515 335.202 49.3212 331.611 47.7992C328.441 47.5067 327.687 47.7656 326.227 48.1803L310.077 36.1363L310 127ZM391.521 42.6919C378.635 59.9485 371.763 66.8595 359.759 77.2232C365.285 80.7488 366.67 83.5222 366.604 89.6483C369.935 94.7392 372.143 96.6179 376.755 98.0334C378.618 89.3323 379.801 85.149 382.062 78.4428C382.905 75.8502 383.425 74.3448 385.061 70.8962C388.361 62.557 389.35 56.3255 390.764 47.4094C391 45.9194 391.249 44.3543 391.521 42.6919Z" fill="#8D738D"/>
<path d="M86.912 102.424V102.168C86.912 90.136 80.512 84.12 70.144 80.152C76.544 76.568 81.92 70.936 81.92 60.824V60.568C81.92 46.488 70.656 37.4 52.352 37.4H10.752V127H53.376C73.6 127 86.912 118.808 86.912 102.424ZM62.336 64.152C62.336 70.808 56.832 73.624 48.128 73.624H29.952V54.68H49.408C57.728 54.68 62.336 58.008 62.336 63.896V64.152ZM67.328 99.992C67.328 106.648 62.08 109.72 53.376 109.72H29.952V90.008H52.736C62.848 90.008 67.328 93.72 67.328 99.736V99.992ZM194.391 82.2V81.944C194.391 56.472 174.551 35.864 146.903 35.864C119.255 35.864 99.159 56.728 99.159 82.2V82.456C99.159 107.928 118.999 128.536 146.647 128.536C174.295 128.536 194.391 107.672 194.391 82.2ZM173.783 82.456C173.783 97.816 162.775 110.36 146.903 110.36C131.031 110.36 119.767 97.56 119.767 82.2V81.944C119.767 66.584 130.775 54.04 146.647 54.04C162.519 54.04 173.783 66.84 173.783 82.2V82.456ZM287.653 127V37.4H267.941V72.856H231.589V37.4H211.877V127H231.589V91.032H267.941V127H287.653Z" fill="#8D738D"/>
<path d="M20.448 8.4V22.512C20.448 24.592 19.424 26.224 16.032 26.224H8.928V30H16.256C21.984 30 24.256 26.864 24.256 22.544V8.4H20.448ZM34.6243 13.104C30.4003 13.104 28.7363 15.472 28.7363 18.672V24.432C28.7363 27.632 30.4003 30 34.6243 30H44.9603V26.704H34.6243C32.7683 26.704 32.0323 25.712 32.0323 24.368V23.152H40.0643C44.2243 23.152 45.7923 21.392 45.7923 18.288C45.7923 15.024 44.0963 13.104 40.0963 13.104H34.6243ZM32.0323 18.704C32.0323 17.392 32.7683 16.368 34.6243 16.368H40.0643C41.7283 16.368 42.4643 17.2 42.4643 18.48C42.4643 19.728 41.7923 20.496 39.9683 20.496H32.0323V18.704ZM52.3313 13.104C50.6353 13.104 49.9633 13.744 49.9633 15.728V30H53.3553V16.848C53.3553 16.528 53.4833 16.368 53.7713 16.368H59.3073C62.8593 16.368 64.3953 17.84 64.3953 20.496V30H67.8193V20.496C67.8193 15.824 65.0353 13.104 59.3073 13.104H52.3313ZM74.9563 13.104C73.2603 13.104 72.5883 13.744 72.5883 15.728V30H75.9803V16.848C75.9803 16.528 76.1083 16.368 76.3963 16.368H81.9323C85.4843 16.368 87.0203 17.84 87.0203 20.496V30H90.4443V20.496C90.4443 15.824 87.6603 13.104 81.9323 13.104H74.9563ZM95.2133 13.104V30H98.6053V13.104H95.2133ZM95.2133 6.736V10.672H98.6373V6.736H95.2133ZM101.767 13.104V16.368H104.071V30H107.495V16.368H112.167V13.104H107.495V11.408C107.495 9.52 108.167 8.88 109.767 8.88H112.103V5.776H109.063C105.575 5.776 104.071 7.184 104.071 11.6V13.104H101.767ZM120.999 13.104C116.775 13.104 115.111 15.472 115.111 18.672V24.432C115.111 27.632 116.775 30 120.999 30H131.335V26.704H120.999C119.143 26.704 118.407 25.712 118.407 24.368V23.152H126.439C130.599 23.152 132.167 21.392 132.167 18.288C132.167 15.024 130.471 13.104 126.471 13.104H120.999ZM118.407 18.704C118.407 17.392 119.143 16.368 120.999 16.368H126.439C128.103 16.368 128.839 17.2 128.839 18.48C128.839 19.728 128.167 20.496 126.343 20.496H118.407V18.704ZM140.882 13.104C137.554 13.104 136.306 14.64 136.306 18.032V30H139.698V18.544C139.698 17.072 140.37 16.368 141.874 16.368H147.826V13.104H140.882Z" fill="#8D738D"/>
</svg>
